<svg xmlns="http://www.w3.org/2000/svg" width="112.13" height="129.041" viewBox="0, 0, 373.768, 430.135"><path d="M90.591 252.975v-.005l115.862-52.04-116.647-46.804v-.006l-.005.004-.01-.004v.011l-61.173 41.034 61.173-41.043-.012-.012.016-.016 116.658 46.836.008-.003 50.409 69.652-.009.048-50.416-69.663-68.376 86.344-.01-.01 68.394-86.368zM251.33 43.892h-80.042L139.415 95.84 198.216 0 .785 43.409l-.575-.196-.002-.002v.001L0 43.143l.208.245v.164L0 43.603l.208.07.457 253.585v.055l.015-.051 84.532 34.983 63.156 26.357 174.557 71.532-13.72-50.218 64.563-46.158V43.892z" fill="#C53D56"/><path d="M256.861 270.627l66.355 63.131 28.848-89.532z" fill="#D23F57"/><path d="M373.768 333.758l-21.704-89.532 21.704-53.432z" fill="#DA3B54"/><path d="M251.177 400.7l5.685-66.942 52.343 46.158z" fill="#AF3750"/><path d="M309.205 379.916l14.012-46.158h50.551z" fill="#C53D56"/><path d="M148.522 358.11l53.908-15.385 48.747 57.975z" fill="#D23F57"/><path d="M138.06 287.298l10.462 70.812 53.908-15.385zm64.37 55.427l48.747 57.975 5.685-66.942z" fill="#C53D56"/><path d="M256.861 333.758l52.344 46.158 14.011-46.158z" fill="#E2445C"/><path d="M.665 297.258l89.927-44.283-5.379 79.269z" fill="#C53D56"/><path d="M90.591 252.975l-5.379 79.27 52.847-44.947z" fill="#D23F57"/><path d="M85.212 332.244l52.847-44.946 10.463 70.811zm238.005 1.514h50.551l-21.704-89.532z" fill="#AF3750"/><path d="M256.861 270.627l-54.432 72.098-64.379-55.392z" fill="#E2445C"/><path d="M256.861 270.627l66.355 63.131h-66.355z" fill="#C53D56"/><path d="M202.43 342.725l54.432-8.967v-63.131z" fill="#AF3750"/><path d="M352.064 244.226L373.768 95.66l-99.362 73.872z" fill="#D23F57"/><path d="M373.768 190.794l-21.704 53.432L373.768 95.66z" fill="#AF3750"/><path d="M89.806 154.119l-61.188 41.045 61.973 57.81z" fill="#C53D56"/><path d="M206.453 200.929L90.591 252.974l47.468 34.324z" fill="#AF3750"/><path d="M256.861 270.627L138.05 287.333l68.395-86.37z" fill="#C53D56"/><path d="M89.791 154.119l.785 98.855 115.877-52.045z" fill="#E2445C"/><path d="M274.405 169.532l77.658 74.694-95.202 26.401z" fill="#C53D56"/><path d="M274.405 169.532l-67.952 31.385 50.417 69.661zM28.619 195.165L.666 297.258l89.926-44.283z" fill="#E2445C"/><path d="M274.405 169.532l99.362-73.873L251.33 43.892z" fill="#C53D56"/><path d="M274.405 169.532L251.33 43.892l-44.877 157.037z" fill="#AF3750"/><path d="M206.453 200.929L139.3 96.026l112.03-52.135z" fill="#C53D56"/><path d="M139.3 95.659l-49.509 58.432 116.662 46.838z" fill="#D23F57"/><path d="M0 43.143L139.3 95.66l-49.526 58.46z" fill="#E2445C"/><path d="M.208 43.211l89.583 110.911-61.172 41.043z" fill="#AF3750"/><path d="M.208 43.211l28.411 151.954L.666 297.313z" fill="#C53D56"/><path d="M373.768 95.659L251.33 43.891h122.438z" fill="#E2445C"/><path d="M251.33 43.892h-80.042L139.3 96.027z" fill="#AF3750"/><path d="M198.217 0L139.3 96.027 0 43.603z" fill="#C53D56"/><path d="M251.177 400.699l58.028-20.783 13.721 50.219z" fill="#D23F57"/></svg>